<svg width="913" height="913" viewBox="0 0 913 913" fill="none" xmlns="http://www.w3.org/2000/svg">
<circle cx="456.5" cy="456.5" r="456.5" fill="url(#paint0_linear_104_59)"/>
<circle cx="455.815" cy="457.186" r="390.013" fill="white"/>
<g clip-path="url(#clip0_104_59)">
<path d="M636.4 491.809V578.654C659.532 577.749 678.135 558.568 678.135 535.191C678.135 511.893 659.532 492.714 636.4 491.809Z" fill="#FFC10D"/>
<path d="M233.782 535.19C233.782 558.568 252.386 577.666 275.518 578.653V491.808C252.386 492.714 233.782 511.894 233.782 535.19Z" fill="#FFC10D"/>
<path d="M645.784 233.824H440.648V358.207H457.77C465.425 358.207 471.681 364.38 471.681 372.118V401.917L511.276 362.322C513.828 359.771 517.368 358.288 521.155 358.288H645.784V233.824Z" fill="#FFC10D"/>
<path d="M681.262 481.6C682.909 465.548 680.851 394.508 673.36 372.447C673.36 372.364 673.36 372.283 673.36 372.117V219.911C673.443 212.256 667.268 206 659.613 206H426.736C425.584 206 424.514 206.164 423.361 206.494C313.877 222.299 231.313 317.705 231.313 428.671V480.86C215.837 493.949 206.042 513.458 206.042 535.191C206.042 573.88 237.076 605.407 275.519 606.314V616.768C275.519 624.424 281.692 630.68 289.43 630.68H358.824C366.48 630.68 372.736 624.506 372.736 616.768V453.613C372.736 445.958 366.563 439.702 358.824 439.702H289.348C281.692 439.702 275.436 445.875 275.436 453.613V464.067C269.756 464.15 264.324 465.055 258.973 466.455V428.671C258.973 336.392 324.004 256.462 412.661 236.623V372.036C412.661 379.691 418.834 385.947 426.572 385.947H443.694V435.421C443.694 441.018 447.069 446.122 452.254 448.18C457.275 450.402 463.203 449.168 467.401 445.134L526.669 385.865H647.595C651.629 406.938 652.534 444.147 652.699 466.372C647.348 464.973 641.997 464.15 636.235 463.985V453.53C636.235 445.875 630.061 439.619 622.324 439.619H552.847C545.192 439.619 538.936 445.792 538.936 453.53V616.767C538.936 624.422 545.109 630.678 552.847 630.678H572.028C565.689 657.761 541.406 678.093 512.429 678.093H455.96C448.304 678.093 442.048 684.266 442.048 692.005C442.048 699.66 448.222 705.999 455.96 705.999H512.676C557.045 705.999 593.76 673.318 600.427 630.843H622.571C630.226 630.843 636.482 624.669 636.482 616.931V606.477C674.925 605.489 705.959 574.043 705.959 535.354C705.876 513.87 696.328 494.606 681.262 481.6ZM303.34 467.525H345.076V603.02H303.34V467.525ZM275.518 491.726V578.736C252.304 577.83 233.782 558.65 233.782 535.272C233.782 511.812 252.386 492.714 275.518 491.726ZM645.784 358.206H521.073C517.369 358.206 513.829 359.688 511.194 362.321L471.599 401.916V372.2C471.599 364.544 465.426 358.288 457.688 358.288H440.565V233.824H645.619V358.207L645.784 358.206ZM608.577 603.02H566.841V467.525H608.577V603.02ZM636.4 578.736V491.807C659.531 492.713 678.135 511.893 678.135 535.271C678.135 558.65 659.531 577.83 636.4 578.736Z" fill="#FF4600"/>
<path d="M487.075 306.757H514.075C521.73 306.757 527.986 300.584 527.986 292.846C527.986 285.107 521.813 278.934 514.075 278.934H487.075C479.419 278.934 473.163 285.107 473.163 292.846C473.163 300.584 479.338 306.757 487.075 306.757Z" fill="white"/>
<path d="M572.356 306.757H599.356C607.012 306.757 613.268 300.584 613.268 292.846C613.268 285.107 607.095 278.934 599.356 278.934H572.356C564.701 278.934 558.445 285.107 558.445 292.846C558.445 300.584 564.701 306.757 572.356 306.757Z" fill="white"/>
</g>
<defs>
<linearGradient id="paint0_linear_104_59" x1="456.5" y1="0" x2="456.5" y2="913" gradientUnits="userSpaceOnUse">
<stop stop-color="#F6F8FA"/>
<stop offset="1" stop-color="#E2E7F3"/>
</linearGradient>
<clipPath id="clip0_104_59">
<rect width="500" height="500" fill="white" transform="translate(206 206)"/>
</clipPath>
</defs>
</svg>
