<svg width="913" height="913" viewBox="0 0 913 913" fill="none" xmlns="http://www.w3.org/2000/svg">
<circle cx="456.5" cy="456.5" r="456.5" fill="url(#paint0_linear_104_53)"/>
<circle cx="455.815" cy="457.186" r="390.013" fill="white"/>
<path d="M620.685 679.803H293.118V586.212H620.684V679.803H620.685Z" fill="#5D5D5D"/>
<path d="M620.685 679.803H456.901V586.212H620.685V679.803Z" fill="#434343"/>
<path d="M509.544 556.964H404.255V415.03C368.36 395.8 345.761 358.569 345.761 317.139C345.761 255.857 395.618 206 456.9 206C518.181 206 568.039 255.857 568.039 317.139C568.039 358.569 545.44 395.8 509.544 415.03V556.964ZM509.544 415.03V556.965Z" fill="#FFE158"/>
<path d="M456.901 206V556.964H509.546V415.03C545.441 395.8 568.04 358.569 568.04 317.139C568.04 255.857 518.182 206 456.901 206Z" fill="#FDD001"/>
<path d="M456.901 334.687C466.593 334.687 474.45 326.83 474.45 317.139C474.45 307.447 466.593 299.59 456.901 299.59C447.21 299.59 439.353 307.447 439.353 317.139C439.353 326.83 447.21 334.687 456.901 334.687Z" fill="white"/>
<path d="M649.931 638.856H263.87V521.868H649.93L649.931 638.856Z" fill="#FF6B3F"/>
<path d="M649.932 638.856H456.901V521.868H649.932V638.856Z" fill="#E13400"/>
<defs>
<linearGradient id="paint0_linear_104_53" x1="456.5" y1="0" x2="456.5" y2="913" gradientUnits="userSpaceOnUse">
<stop stop-color="#F6F8FA"/>
<stop offset="1" stop-color="#E2E7F3"/>
</linearGradient>
</defs>
</svg>
