<svg width="913" height="913" viewBox="0 0 913 913" fill="none" xmlns="http://www.w3.org/2000/svg">
<circle cx="456.5" cy="456.5" r="456.5" fill="url(#paint0_linear_104_66)"/>
<circle cx="455.815" cy="457.186" r="390.013" fill="white"/>
<g clip-path="url(#clip0_104_66)">
<path d="M384.3 568.579C384.3 565.817 383.201 563.163 381.248 561.21L351.783 531.744C347.717 527.671 341.117 527.671 337.051 531.744L243.339 625.465C239.273 629.523 239.273 636.115 243.339 640.189L272.804 669.654C276.87 673.711 283.469 673.711 287.535 669.654L381.247 575.934C383.201 573.981 384.3 571.341 384.3 568.579Z" fill="#FF0015"/>
<path d="M686.308 300.354C687.681 298.973 688.643 297.226 689.086 295.326L706.74 218.758C707.533 215.256 706.48 211.594 703.948 209.053C701.416 206.512 697.738 205.459 694.243 206.267L617.675 223.906C615.768 224.349 614.029 225.311 612.655 226.692L344.421 494.911C340.354 498.985 340.354 505.577 344.421 509.651L403.343 568.58C405.296 570.533 407.951 571.632 410.712 571.632C413.474 571.632 416.121 570.533 418.074 568.58L686.308 300.354Z" fill="#CCD1D9"/>
<path opacity="0.2" d="M703.947 209.053C701.414 206.512 697.737 205.459 694.242 206.267L617.674 223.906C615.767 224.349 614.028 225.311 612.654 226.692L344.421 494.911C340.354 498.985 340.354 505.577 344.421 509.651L403.343 568.58C405.296 570.533 407.951 571.632 410.712 571.632C413.474 571.632 416.121 570.533 418.074 568.58L686.308 300.354C687.681 298.973 688.643 297.226 689.086 295.326L706.74 218.758C707.533 215.255 706.48 211.593 703.947 209.053ZM696.577 216.415L678.938 292.984L410.712 561.209L351.783 502.28L620.009 234.062L696.577 216.415Z" fill="white"/>
<path d="M373.877 539.115C369.811 535.04 369.811 528.449 373.877 524.375L562.589 335.677C566.664 331.61 573.256 331.61 577.314 335.677C581.389 339.743 581.389 346.343 577.314 350.409L388.61 539.114C384.544 543.174 377.952 543.174 373.877 539.115Z" fill="#AAB2BC"/>
<path d="M282.439 586.356H370.826L381.248 575.934C383.201 573.981 384.299 571.341 384.299 568.579C384.299 567.526 384.139 566.504 383.841 565.527H303.275L282.439 586.356Z" fill="#E18864"/>
<path d="M347.473 609.717H259.079L243.339 625.465C241.89 626.914 240.966 628.684 240.547 630.546H326.638L347.473 609.717Z" fill="#E18864"/>
<path d="M454.902 590.674L322.318 458.092C318.252 454.025 311.66 454.025 307.593 458.092L285.491 480.186C281.425 484.26 281.425 490.852 285.491 494.911L418.074 627.495C420.028 629.448 422.675 630.547 425.437 630.547C428.206 630.547 430.854 629.448 432.807 627.495L454.902 605.4C458.968 601.34 458.968 594.734 454.902 590.674Z" fill="url(#paint1_linear_104_66)"/>
<path d="M290.328 664.329C290.328 653.204 285.994 642.738 278.129 634.864C261.879 618.613 235.451 618.613 219.2 634.864C211.334 642.737 207.001 653.204 207.001 664.329C207.001 675.452 211.335 685.919 219.2 693.793C227.074 701.666 237.534 706 248.665 706C259.796 706 270.256 701.666 278.129 693.793C285.995 685.92 290.328 675.452 290.328 664.329Z" fill="#FFEB00"/>
<path d="M248.665 674.744C254.416 674.744 259.079 670.079 259.079 664.323C259.079 658.568 254.416 653.902 248.665 653.902C242.913 653.902 238.25 658.568 238.25 664.323C238.25 670.079 242.913 674.744 248.665 674.744Z" fill="#FF9C4F"/>
</g>
<defs>
<linearGradient id="paint0_linear_104_66" x1="456.5" y1="0" x2="456.5" y2="913" gradientUnits="userSpaceOnUse">
<stop stop-color="#F6F8FA"/>
<stop offset="1" stop-color="#E2E7F3"/>
</linearGradient>
<linearGradient id="paint1_linear_104_66" x1="340.5" y1="455" x2="458" y2="579" gradientUnits="userSpaceOnUse">
<stop offset="0.13" stop-color="#FFEB00"/>
<stop offset="0.14" stop-color="#C83C00"/>
<stop offset="0.86" stop-color="#C83C00"/>
<stop offset="0.87" stop-color="#FF9C4F"/>
</linearGradient>
<clipPath id="clip0_104_66">
<rect width="500" height="500" fill="white" transform="translate(207 206)"/>
</clipPath>
</defs>
</svg>
